<svg xmlns="http://www.w3.org/2000/svg" width="20" height="19.857"><g fill="#ffb950"><path d="M2.516 9.96v9.897h14.968V9.96l1.274 1.273L20 9.992l-2.516-2.514v-5.76H14.46v2.737L10 0 0 9.992l1.242 1.241zm14.331-.604v9.864H3.153V9.356H3.12L10 2.482l6.879 6.874zM10 .89l5.096 5.091V2.355h1.751v5.378l2.261 2.259-.35.35L10 1.592l-8.758 8.75-.35-.35z"/><path d="M8.854 8.56v.843c-.16.048-.319.128-.478.207l-.605-.604-1.625 1.622.606.605c-.08.16-.144.318-.207.477H5.7v2.292h.844c.047.159.127.318.207.477l-.606.605 1.625 1.622.605-.604c.159.08.318.143.478.207v.843h2.292v-.843c.16-.048.319-.128.478-.207l.605.604 1.625-1.622-.606-.605c.08-.16.144-.318.207-.477h.844V11.71h-.844a2.982 2.982 0 00-.207-.477l.606-.605-1.625-1.622-.605.604c-.159-.08-.318-.143-.478-.207V8.56zm2.675 1.718l.207.128.493-.494.717.716-.494.494.128.207c.143.238.254.509.318.78l.064.238h.7v1.018h-.7l-.064.239a2.98 2.98 0 01-.318.78l-.128.206.494.494-.717.716-.493-.494-.207.128c-.24.143-.51.254-.78.318l-.24.063v.7H9.49v-.7l-.238-.063a2.985 2.985 0 01-.78-.318l-.208-.128-.493.494-.717-.716.494-.494-.128-.207a2.773 2.773 0 01-.318-.78l-.064-.238h-.7v-1.018h.7l.064-.239a2.98 2.98 0 01.318-.78l.128-.206-.494-.494.717-.716.493.494.207-.128c.24-.143.51-.254.78-.318l.24-.063v-.7h1.019v.7l.238.063c.271.064.526.175.78.318z"/><path d="M8.025 12.856c0 1.082.892 1.973 1.975 1.973a1.984 1.984 0 001.975-1.973A1.984 1.984 0 0010 10.883a1.984 1.984 0 00-1.975 1.973zm3.313 0c0 .732-.606 1.337-1.338 1.337a1.345 1.345 0 01-1.338-1.337c0-.732.606-1.337 1.338-1.337.732 0 1.338.605 1.338 1.337z"/></g></svg>