<svg xmlns="http://www.w3.org/2000/svg" version="1.1" xml:space="preserve" id="svg84" width="787.149" height="795.018"><style type="text/css" id="style2"/><g id="outline" transform="translate(-86.468 -82.382)"><path d="M575.5 465.3c-7.1.1-13.1.2-18.4.3-12.8.3-22.6.5-37.4-.1 1.4-9.3 5.1-31.4 14.8-83.6 1.4-7.4-2.5-14.5-9.4-17.3-6.9-2.8-14.7-.5-18.8 5.8-23.1 34.5-65.4 97.3-88.5 129.7-3.4 4.8-3.8 11-1.1 16.3 2.7 5.2 8.1 8.5 14 8.4 6-.1 11.5-.2 16.8-.4 9.1-.3 17.8-.5 28.8-.4-5.9 14.1-12.2 30.5-18.7 47.7-5 13.1-10.1 26.7-15.7 40.7-2.8 7.1-.3 14.9 6.2 19 2.6 1.6 5.5 2.4 8.3 2.4 4.2 0 8.4-1.8 11.5-5.1 42.9-47 72.8-81.9 119.7-137.8 4-4.7 4.8-11.1 2.1-16.7-2.5-5.6-8-9.1-14.2-8.9zm.7 15.9c-46.8 55.7-76.6 90.5-119.3 137.3-.2.3-.3.4-.7.1-.4-.3-.4-.4-.2-.7 5.6-14.1 10.8-27.7 15.8-40.9 8.1-21.3 15.8-41.5 22.8-57.2 1-2.3.8-4.9-.5-7-1.3-2.1-3.6-3.4-6.1-3.5-6.7-.2-12.7-.3-18.1-.3-8.4 0-15.7.2-22.7.4-5.3.2-10.7.3-16.6.4-.1 0-.4 0-.5-.3-.2-.3 0-.5 0-.6 23.2-32.6 65.6-95.5 88.8-130.1.2-.3.3-.4.7-.2.4.2.4.3.4.7-4.6 24.5-8.3 44.7-10.9 59.9-1.7 9.8-3 17.4-3.8 22.8-1.4 9.5-1.9 12.3.5 15.3 1.3 1.7 3.4 2.8 5.5 2.9 20 1.1 31.1.8 46.3.5 5.3-.1 11.2-.3 18.2-.3.2 0 .4 0 .5.3.1.2 0 .4-.1.5zm224.6-363.9c-2.6-2.3-6.4-2.4-9.2-.5-15.8 11.1-31 21.7-45.7 31.9-14.7 10.2-30 20.8-45.8 31.9-1.3.9-2.2 2.1-2.7 3.6-4.1 11.3-8.2 23.1-12.2 34.5-3.8 10.9-7.7 22.1-11.6 32.8-6.7 6.7-40.9 41.2-79.6 80.4-45.3-23.3-97.7-29.7-146.7-16.8-9.5 2.5-18.7 5.7-27.5 9.5-10.4-10.1-20.3-19.7-30.1-29.2 10.2-15.9 17.8-34.9 21.5-54.1 4.5-23.2 3.3-45.4-3.4-64.2-13-36.4-48.4-79.2-91-90.8-37.1-10.1-72-.7-106.9 28.5-1.7 1.4-2.6 3.4-2.7 5.6 0 2.2.9 4.3 2.5 5.7 12.9 11.6 21.7 20.3 30.2 28.7 8 7.9 16.2 16 27.8 26.5-2 13.4-4.5 25.8-7 37.8-2.4 11.8-4.9 23.9-6.9 37.1-12.3 1.9-23.2 4.5-33.9 7.1-14.9 3.6-29.1 7-45.8 8.1-9.5-9-17.7-17.1-25.7-24.8-8.6-8.4-17.5-17.1-28.1-27.1-1.5-1.4-3.5-2.1-5.6-2-2.1.1-4 1.1-5.3 2.6-25.1 29.6-30.1 75-12.5 112.8 17.1 36.7 53.4 68.8 90.4 80 16.6 5 38 5 60.4 0 16.9-3.8 33.3-10.3 45.2-17.8 9.8 10.2 19.7 20.5 30.1 31.3-.1.2-.2.4-.2.6-13.2 34.4-15.7 74.1-7.1 111.9-19.8 19.9-47.9 47.8-75.2 74.8-34.9 34.6-71.1 70.4-90.1 89.9-9 9.2-19.1 19.5-23.9 33.4-5.2 15.1-3.2 32.8 5.5 50 7.4 14.6 18.2 26.5 28.6 38 22.4 24.7 49.1 51.1 83.9 52.4h1.9c15.6 0 30.1-7.3 45.5-23 15.7-16.1 33.5-33.8 52.3-52.6 37.2-37.1 79.1-79 115.8-118.5 4.7 1.1 9.5 2 14.3 2.7 10 1.5 20 2.2 30 2.2 18.3 0 36.5-2.5 53.7-7.4 37.3 40.6 86.9 94.1 143.6 152.7.5.6 1.1 1.2 1.7 1.8 10.7 11.2 33 34.6 72.8 34.6 9.1 0 19.1-1.2 30.2-4.1 29.4-7.7 53.8-37.8 57.9-71.7 3.7-29.9-8.9-58.4-38.3-87.3-44.7-43.8-89.6-86.6-145-138.2 11.4-27.5 16.6-57 14.7-85.5-2-29.9-11.6-59.1-26.9-84 36.9-38 69.7-72 75.9-78.5 10-4.2 21.4-8.5 32.4-12.7 11.7-4.4 23.8-9 34.4-13.6 1.3-.5 2.4-1.4 3.2-2.6 20.5-29.3 45.7-72 58.2-96.4 1.4-2.8 1-6.2-1.2-8.5-25.2-27-44.8-47-70.8-69.5zM299.2 380.2c-2.6-2.7-6.9-3.1-9.9-.8-19.2 14.6-65.6 28.9-97.7 19.2-32.6-9.8-66-39.4-81.1-72-7.2-15.4-10.2-33.3-8.5-50.5 1.5-14.9 6.3-28.6 14-39.9 7.9 7.6 15 14.5 21.8 21.2 8.6 8.5 17.6 17.2 28.3 27.3 1.5 1.4 3.5 2.1 5.5 2 19.4-1 35.8-4.9 51.6-8.7 11.9-2.8 24.2-5.8 38-7.6 3.4-.4 6-3.1 6.5-6.4 2-14.9 4.8-28.5 7.5-41.7 2.8-13.4 5.6-27.3 7.7-42.7.3-2.5-.6-4.9-2.4-6.6-12.9-11.6-21.7-20.3-30.2-28.7-7.1-7-14.4-14.3-24.2-23.3 28.8-21.9 56.6-28.3 86.6-20.2 32.7 8.9 67.4 43.8 80.8 81.3 11.5 32.3 3.4 77.5-19.8 109.9-2.1 3-1.8 7.1.8 9.7 10 9.8 20.1 19.6 30.7 29.9-11.4 6.2-22.1 13.6-32 22.2-18.3 15.9-33 35.3-43.9 57.6-10.2-10.6-20.1-21-30.1-31.2zm34.3 411.1c-18.9 18.8-36.7 36.6-52.5 52.7-12.9 13.2-24.1 18.9-36 18.5-28.9-1.1-53-25.1-73.3-47.5-9.8-10.8-19.9-21.9-26.3-34.7-6.8-13.3-8.5-27.3-4.7-38.4 3.7-10.6 12.5-19.7 20.4-27.8 18.9-19.4 55-55.2 89.9-89.7 24.6-24.4 49.9-49.5 69.2-68.8 3 9.4 6.7 18.5 11 27.3-18 17.5-38.1 37.2-58.2 56.9-27.2 26.7-55.4 54.2-77.5 75.7-12.2 11.9-16.2 22.9-11.7 32.7 3.8 8.3 12.4 12.1 20.6 12.1 1.9 0 3.8-.2 5.5-.6 7.6-1.7 15-5.9 21.4-12.2 21.4-21.1 36.8-35.5 51.7-49.5 21.4-20 41.7-38.9 75.3-74 4.3 4.9 8.8 9.6 13.5 14 1.3 1.2 2.6 2.4 4 3.6-15.2 14.8-32 31.1-48.7 47.4-25.2 24.5-51.2 49.9-71.3 69.3-7 6.7-16.5 15.9-19.1 28.4-1.7 7.9.4 16.8 5.5 23.2 4.2 5.2 9.9 8.1 16.1 8.2h.2c9.9 0 17.4-7.1 21.9-11.4 24.6-23.4 53.3-51.3 81.1-78.3 20-19.5 40.7-39.5 59.7-57.8 7.2 3.3 14.6 6.1 22.2 8.5-35 37.4-74.6 77-109.9 112.2zm5.2-194.7c3.2 5.4 6.6 10.6 10.3 15.6-34.1 35.6-53.6 53.9-76.1 74.9-15 14-30.5 28.5-52 49.7-3.1 3-8 6.9-14.1 8.3-3.9.9-8.2-.5-9.3-3-1.5-3.3 1.5-8.9 8.5-15.8 22.1-21.5 50.3-49.1 77.6-75.8 18.9-18.5 37.9-37.1 55.1-53.9zm49 54.4c6.1 4.5 12.6 8.6 19.3 12.3-18 17.3-37.2 36-55.9 54.2-27.7 26.9-56.4 54.8-81 78.2-3.9 3.7-7.9 7.3-11.6 7.3-1.6 0-3.2-.9-4.5-2.6-2.2-2.8-3.3-7.2-2.5-10.7 1.6-7.4 7.4-13.5 14.9-20.7 20.1-19.4 46.1-44.8 71.3-69.3 17.2-16.8 34.4-33.6 50-48.7zm427.5 66.7c25.9 25.4 37 49.9 33.9 74.8-3.4 28-23.1 52.7-46.8 59-50.5 13.2-76-13.5-88.3-26.3-.6-.7-1.2-1.3-1.8-1.9-54.3-56.1-102.1-107.6-138.8-147.5 4.3-1.7 8.5-3.4 12.6-5.4 6.7-3.2 13.2-6.8 19.5-10.9 22.3 22.2 43.8 43.5 67.2 66.8 6 6 16 15.9 29.1 15.9h.7c9.3-.2 18.5-4.9 24.5-12.4 5.4-6.8 7.7-15.3 6.1-23.3-3.2-16.1-14.9-28.1-24.3-37.8l-53.9-55.1c5-6.5 9.6-13.4 13.8-20.5 1.9-3.3 3.7-6.6 5.5-10 53.6 50 97.4 91.8 141 134.6zm-197.2-67c9.8-7.5 18.9-16 27.2-25.4l52.8 54c8 8.2 18 18.4 20.3 30.2 1 5-1.5 9-3.1 11-3.2 4-8.3 6.6-13.1 6.7-6.5.1-12.9-5.6-18.9-11.6-22.6-22.6-43.6-43.4-65.2-64.9zm62.4-166.4c2.3 34.1-6.5 70-24.7 101.2-18.2 31.2-45.2 56.5-76 71.2-30.8 14.7-67.5 19.9-103.2 14.5-35.7-5.4-69.2-21.1-94.3-44.3-25.1-23.2-43.4-55.3-51.6-90.5-8.2-35.2-6-72.1 6.3-104l1.8-4.5c.1-.2.2-.4.2-.5 16.4-39.3 44.9-69.2 82-86.7l1.2-.6c9.2-4.2 18.9-7.7 29-10.4 47.2-12.4 97.6-5.5 140.7 18.1.1 0 .2.1.2.1 10.9 6 21.3 13 31.1 21.1 32.8 27.3 54.2 70.3 57.3 115.3zm123-202.8c-9.8 4.1-21 8.4-31.9 12.5-11.7 4.4-23.8 9-34.4 13.6-.9.4-1.8 1-2.5 1.7-.4.4-34.8 36.2-74.7 77.3-8-10.8-17.2-20.6-27.4-29-8-6.6-16.4-12.6-25.1-17.9 41.7-42.2 77.5-78.2 77.9-78.6.8-.8 1.4-1.7 1.7-2.7 4.1-11.3 8.2-23.1 12.2-34.5 3.7-10.6 7.6-21.6 11.4-32.2 15.1-10.6 29.6-20.7 43.7-30.5 13.2-9.2 26.9-18.7 41-28.6 22.1 19.4 39.8 37.5 61.5 60.7-12.6 23.8-34.8 61.3-53.4 88.2zM766.6 814c4.7 3.2 10.1 4.8 15.9 4.8 2.5 0 5.1-.3 7.8-.9 11-2.6 19-9.9 22-20 3-10.2.2-21.6-7.1-29.1-7.2-7.4-17.8-10-29-7.1-11 2.9-16.4 9.2-19.1 14.1-3.4 6.2-4.3 13.5-2.5 20.7 1.7 7.3 6 13.5 12 17.5zm13.3-37.8c1.8-.5 3.5-.7 5.1-.7 3.7 0 6.9 1.3 9.3 3.7 3.5 3.6 4.9 9.5 3.5 14.5-1 3.4-3.7 7.8-11 9.6-11.3 2.7-16.5-5.3-17.7-10.4-.6-2.2-2.6-13.2 10.8-16.7z" id="path27" fill="#222" fill-opacity="1"/></g></svg>