<svg xmlns="http://www.w3.org/2000/svg" width="64.038" height="58.194"><path d="M61.812 53.194h-2.8v-31.4c0-2.2-7-7.9-7-7.9s-14 5.7-14 7.9v35.3h-6v-48.1c0-2.2-9-7.9-9-7.9s-18 5.7-18 7.9v44.2h-3c-1.1 0-1 .9-1 2s-.1 2 1 2h59.8c1.4 0 1.2-.9 1.2-2s.2-2-1.2-2zm-38.8-52.1v49.1m-15-37.3l7-3m-7 8.9l7-3m-7 7.9l7-3m-7 7.9l7-2.9m-7 8.8l7-2.9m-7 7.8l7-2.9m-7 8.8l7-2.9m-7 7.8l7-2.9m2-38.3l3-1m-3 6.9l3-1m-3 5.9l3-1m-3 5.9l3-1m-3 6.9l3-1m-3 5.9l3-1m-3 6.9l3-1m-3 5.9l3-1m32-31.4v36.3m-11-25.5l7-3m-7 7.9l7-3m-7 7.9l7-2.9m-7 8.8l7-3m-7 7.9l7-2.9" stroke="#ffb950" stroke-width="2" fill="none"/></svg>