<svg xmlns="http://www.w3.org/2000/svg" width="80" height="80" viewBox="0 0 21.167 21.167"><g transform="translate(576.564 439.493) scale(.26458)" fill="none" stroke="#ffb342"><path d="M-2147.805-1599.085c3.352-5.244 5.499-10.316 9.327-10.647 4.414-.383 6.987 4.911 10.055 9.827m7.274-5.845c-3.849-4.888-7.966-8.976-7.02-12.7 1.092-4.294 6.935-4.983 12.588-6.263m-3.447-8.776c-5.773 2.323-10.156 4.994-13.465 3.041-3.817-2.25-2.84-8.053-2.485-13.837m-27.785 22.33c6.062 1.41 11.547 1.794 13.137 5.292 1.835 4.034-2.295 8.225-5.904 12.76m10.3-40.012c.465 6.205 1.788 11.452-1.075 14.016-3.3 2.954-8.536.266-13.94-1.825m30.559 19.797a1.652 1.652 0 01-1.652 1.651 1.652 1.652 0 01-1.652-1.65 1.652 1.652 0 011.652-1.653 1.652 1.652 0 011.652 1.652zm-14.095 1.1a1.652 1.652 0 01-1.652 1.652 1.652 1.652 0 01-1.651-1.652 1.652 1.652 0 011.651-1.653 1.652 1.652 0 011.652 1.653zm-5.401-13.064a1.652 1.652 0 01-1.652 1.651 1.652 1.652 0 01-1.652-1.65 1.652 1.652 0 011.652-1.653 1.652 1.652 0 011.652 1.652zm10.756-9.175a1.652 1.652 0 01-1.653 1.652 1.652 1.652 0 01-1.65-1.652 1.652 1.652 0 011.65-1.652 1.652 1.652 0 011.653 1.652zm12.049 7.394a1.652 1.652 0 01-1.652 1.652 1.652 1.652 0 01-1.651-1.652 1.652 1.652 0 011.651-1.651 1.652 1.652 0 011.652 1.651zm-7.854 4.596a4.911 4.911 0 01-4.91 4.91 4.911 4.911 0 01-4.912-4.91 4.911 4.911 0 014.91-4.911 4.911 4.911 0 014.911 4.91zm18.725 0a23.635 23.635 0 01-23.636 23.635 23.635 23.635 0 01-23.636-23.635 23.635 23.635 0 0123.635-23.636 23.635 23.635 0 0123.636 23.636zm3.33 0a26.966 26.966 0 01-26.967 26.965 26.966 26.966 0 01-26.965-26.965 26.966 26.966 0 0126.965-26.967 26.966 26.966 0 0126.967 26.967z" stroke-width="2.217" stroke-linejoin="round"/><circle cx="-2139.142" cy="-1621.077" r="38.733" stroke-width="2.535"/></g></svg>