<svg xmlns="http://www.w3.org/2000/svg" width="80" height="80" viewBox="0 0 21.167 21.167"><g stroke="#ffb342" transform="translate(445.846 440.979) scale(.26458)" fill="none"><g transform="translate(.327 .376)" stroke-linejoin="round"><rect width="49.034" height=".689" x="-1669.933" y="-1611.241" ry="0" stroke-width="2"/><rect transform="rotate(90)" ry="0" y="1645.984" x="-1638.626" height=".689" width="23.083" stroke-width="1.372"/><rect width="23.083" height=".689" x="-1638.985" y="1643.467" ry="0" transform="rotate(90)" stroke-width="1.372"/><rect transform="rotate(90)" ry="0" y="1627.407" x="-1638.506" height=".689" width="23.083" stroke-width="1.372"/><rect width="23.083" height=".689" x="-1638.386" y="1662.284" ry="0" transform="rotate(90)" stroke-width="1.372"/><rect transform="rotate(90)" ry="0" y="1665.281" x="-1638.985" height=".689" width="23.083" stroke-width="1.372"/><rect width="23.083" height=".689" x="-1638.266" y="1623.692" ry="0" transform="rotate(90)" stroke-width="1.372"/><ellipse cx="-1645.416" cy="-1614.581" rx="24.654" ry=".435"/><ellipse ry=".435" rx="24.654" cy="-1639.299" cx="-1645.416"/><ellipse cx="-1645.416" cy="-1643.067" rx="24.654" ry=".435"/><ellipse ry=".609" rx="13.659" cy="-625.166" cx="2209.867" transform="matrix(-.49798 -.86719 .88612 -.46345 0 0)" stroke-width="1.202"/><ellipse transform="matrix(.51388 -.85786 -.89394 -.4482 0 0)" cx="723.199" cy="2245.352" rx="13.793" ry=".629" stroke-width="1.228"/><rect ry="0" y="-1643.581" x="-1669.933" height=".689" width="49.034" stroke-width="2"/><rect width="49.034" height=".689" x="-1669.933" y="-1640.045" ry="0" stroke-width="2"/><rect ry="0" y="-1614.637" x="-1669.933" height=".689" width="49.034" stroke-width="2"/></g><circle cx="-1645.089" cy="-1626.69" r="38.733" stroke-width="2.535"/></g></svg>