<svg xmlns="http://www.w3.org/2000/svg" width="27" height="27"><g fill="#1c275f" fill-opacity=".941"><path d="M23.429 8.035l1.85-1.851-3.723-3.724V0H5.444v2.46L1.72 6.184l1.851 1.85a11.201 11.201 0 00-.958 2.309H0v6.314h2.613c.24.806.544 1.568.958 2.308l-1.85 1.851 4.463 4.464 1.85-1.851c.741.414 1.503.719 2.309.958V27h6.314v-2.613c.806-.24 1.568-.544 2.308-.958l1.851 1.85 4.464-4.463-1.851-1.85c.414-.741.719-1.503.958-2.309H27v-6.314h-2.613a12.585 12.585 0 00-.958-2.308zM6.315.87h14.37v19.814H13.5A7.193 7.193 0 016.315 13.5zm19.814 14.915h-2.417l-.087.327c-.24.936-.61 1.85-1.11 2.7l-.175.283 1.72 1.72-3.222 3.223-1.72-1.72-.283.174c-.85.5-1.764.87-2.7 1.11l-.327.087v2.439h-4.573v-2.417l-.326-.087a10.39 10.39 0 01-2.7-1.11l-.283-.175-1.72 1.72-3.245-3.244 1.72-1.72-.174-.283a10.39 10.39 0 01-1.11-2.7l-.087-.327H.87v-4.572h2.417l.087-.327c.24-.936.61-1.85 1.11-2.7l.175-.283-1.72-1.72 2.504-2.482V13.5c0 4.442 3.614 8.056 8.056 8.056h8.056V3.702l2.483 2.482-1.72 1.72.174.283c.5.85.87 1.764 1.11 2.7l.087.327h2.439z"/><path d="M8.056 6.532h10.888v.871H8.056zm0 2.178h10.888v.87H8.056zm0 2.177h10.888v.871H8.056zm0 2.178h10.888v.87H8.056zm8.71 2.177h2.178v.87h-2.178zM10.234 2.177h6.532v.871h-6.532z"/></g></svg>