<svg xmlns="http://www.w3.org/2000/svg" width="80" height="80" viewBox="0 0 21.167 21.167"><g transform="translate(576.564 439.493) scale(.26458)" fill="none" stroke="#ffb342"><circle cx="-2139.142" cy="-1621.077" r="38.733" stroke-width="2.535"/><path d="M-2115.88-1605.778h-2.186v-24.517c0-1.718-5.466-6.169-5.466-6.169s-10.931 4.45-10.931 6.169v27.562h-4.685v-37.557c0-1.717-7.027-6.168-7.027-6.168s-14.055 4.45-14.055 6.168v34.512h-2.342c-.859 0-.78.703-.78 1.561 0 .86-.079 1.562.78 1.562h46.692c1.093 0 .937-.703.937-1.562 0-.858.156-1.561-.937-1.561zm-30.295-40.68v38.337m-11.712-29.124l5.465-2.342m-5.465 6.949l5.465-2.342m-5.465 6.168l5.465-2.342m-5.465 6.168l5.465-2.264m-5.465 6.87l5.465-2.264m-5.465 6.091l5.465-2.265m-5.465 6.872l5.465-2.265m-5.465 6.091l5.465-2.265m1.562-29.905l2.342-.78m-2.342 5.387l2.342-.78m-2.342 4.606l2.342-.78m-2.342 4.606l2.342-.78m-2.342 5.387l2.342-.781m-2.342 4.607l2.342-.781m-2.342 5.387l2.342-.78m-2.342 4.606l2.342-.78m24.986-24.518v28.343m-8.588-19.91l5.465-2.342m-5.465 6.168l5.465-2.343m-5.465 6.168l5.465-2.264m-5.465 6.872l5.465-2.343m-5.465 6.169l5.465-2.265" stroke-width="1.562"/></g></svg>