<svg xmlns="http://www.w3.org/2000/svg" width="80" height="80" viewBox="0 0 21.167 21.167"><g transform="translate(576.564 439.493) scale(.26458)" fill="none" stroke="#ffb342"><circle cx="-2139.142" cy="-1621.077" r="38.733" stroke-width="2.535"/><path d="M-2151.015-1625.778c-.547-.089-.464.566.626 1.618 1.25 1.203 1.283 1.368.584 2.824l-.742 1.546-2.243-2.332c-1.666-1.732-2.412-2.276-2.902-2.116-.49.16.083.944 2.236 3.054 3.897 3.821 4.127 4.166 3.439 5.169l-.577.84-1.364-1.178c-.75-.647-1.16-.923-.913-.612.1.125.143.29.138.497.13.091.254.205.36.347.046.06.077.104.111.153.151.047.29.109.413.22l.025-.057 1.339 1.077c.736.592 1.945 1.415 2.687 1.827 1.148.639 1.303.93 1.04 1.95-.169.659-.094 1.168.166 1.132.26-.035 3.174 2.686 6.473 6.049 4.56 4.647 5.951 6.303 5.797 6.903l-.203.789-1.211-1.014-1.211-1.015 1.02 1.076c1.364 1.437 3.063 1.78 4.011.807.683-.7.536-.94-2.417-3.927-2.768-2.801-3.109-3.317-2.85-4.321l.293-1.14 3.718 3.754c5.717 5.774 7.312 7.264 4.865 4.55-1.198-1.33-2.373-2.542-2.612-2.692-.239-.15-1.165-1.131-2.058-2.18-1.317-1.546-1.498-1.99-.962-2.36.906-.624 2.574-.737 3.622-.246.717.336.601.38-.652.253-.836-.084-1.623-.034-1.747.112-.124.145 1.45 1.903 3.5 3.904l3.729 3.64h3.532l-12.94-13.13c-9.14-9.273-11.811-11.99-12.395-13.16a3.088 3.088 0 01-.232-.126c-.288-.172-.362-.206-.465-.296-.263-.053-.508-.202-.641-.43l-.972-.876c-.022-.02-.043-.035-.065-.055h0c-.105-.04-.286-.112-.562-.225.17.056.338.117.507.178-.492-.425-.898-.67-1.18-.755a.948.948 0 00-.118-.028zm-1.106 1.789c-.04-.013-.133.101-.31.331-.22.285.03.904.584 1.455.532.527 1.08.982 1.22 1.011.14.029-.164-.36-.673-.867-.51-.506-.888-1.184-.84-1.507.042-.273.058-.41.02-.423zm4.067 2.393c.308.078.7.544 1.507 1.36 1.475 1.489 1.592 1.783 1.048 2.614-.824 1.259-1.687 1.165-3.204-.349-.909-.907-1.146-1.452-.835-1.926.829-1.26 1.088-1.8 1.484-1.7zm-8.551-1.637l-.44.812c-.362.67-.08 1.152 1.624 2.77 1.134 1.076 2.176 1.98 2.315 2.01.14.028-.658-.812-1.772-1.871-1.418-1.346-1.983-2.196-1.878-2.823zm7.057 3.364l1.463 1.483c1.362 1.38 1.737 1.685 1.795 1.458.013-.05-.715-.732-1.617-1.515zm3.524 12.489c-.14-.029.6.76 1.645 1.755 1.044.995 2.012 1.833 2.152 1.863.14.028-.6-.76-1.645-1.756-1.044-.995-2.012-1.833-2.152-1.862zm4.669 4.741c-.14-.029.6.76 1.644 1.756 1.045.995 2.013 1.833 2.153 1.862.14.029-.6-.76-1.645-1.756-1.044-.995-2.013-1.833-2.152-1.862zm18.602 6.183c-1.548-.321-2.587.053-2.844 1.053-.216.838-.047 1.105.93 1.467.657.244 1.42.412 1.695.374.057-.013.144.014.242.05.103-.018.287.013.356 0 .047 0 .097 0 .144-.013.037-.056.109-.11.264-.188.11-.055.34-.062.532-.057a5.94 5.94 0 01.146-.704c.332-1.29.245-1.494-.772-1.808a7.807 7.807 0 00-.694-.18zm.479 3.08l-.049.08c.015.012.022.013.035.02v-.012c0-.036.013-.064.013-.092z" fill="#ffb342" stroke-width=".399"/><path d="M-2125.625-1622.478l-12.696-9.979-.635 6.225-1.385-6.533-13.354 4.495 12.387-5.565-12.584-3.682 12.218 2.614-13.268-12.838 14.473 12.006.825-13.322.525 14.106 14.767-6.283-14.102 7.533z" stroke-width=".676"/><path d="M-2139.94-1632.48l-13.883 17.42-1.11-.594 14.592-17.111z" fill="#ffb342" stroke="none"/></g></svg>