<svg xmlns="http://www.w3.org/2000/svg" width="80" height="80" viewBox="0 0 21.167 21.167"><g stroke-width="2" transform="translate(576.564 439.493) scale(.26458)" fill="none" stroke="#ffb342"><circle cx="-2139.142" cy="-1621.077" r="38.733"/><path d="M-2138.875-1593.478c7.328-2.2 12.654-6.219 16.083-11.963 2.183-5.307 4.04-10.885 4.121-17.945l-.797-14.488c-1.491-4.888-4.677-7.596-8.64-9.305-9.046-2.347-16.562-1.855-23.129.4-4.121 1.52-7.04 4.777-7.975 10.899l-.4 15.153c1.534 8.124 3.165 12.788 6.115 17.014 3.218 4.003 6.55 7.966 14.622 10.235z"/><path d="M-2154.028-1645.052l2.184 15.959h25.565l.962-16.49m-26.527 31.575c2.036 12.393 6.675 18.406 12.969 20.53 6.167-1.07 10.187-8.436 12.596-20.53-9.216 5.679-17.795 6.026-25.565 0m25.565-15.085c4.116-1.078 4.695-4.704 6.81-8.781m-32.375 8.781c-3.029-.582-4.628-4.713-6.908-9.54"/><path d="M-2151.844-1629.093h25.565v15.085h-25.565z"/><path d="M-2149.206-1626.267h20.29v9.433h-20.29z"/></g></svg>