<svg xmlns="http://www.w3.org/2000/svg" width="80" height="80" viewBox="0 0 21.167 21.167"><g fill="none" stroke="#ffb342"><circle r="10.248" cy="10.589" cx="10.59" stroke-width=".529"/><g stroke-width="9.454"><g transform="translate(129.307 117.405) scale(.05597)" stroke-linejoin="round"><path d="M-2191.447-1987.738h29.365v158.874h-29.365z"/><circle r="14.128" cy="-1908.301" cx="-2176.765"/></g><g stroke-linejoin="round" transform="translate(129.222 117.415) scale(.05597)"><path d="M-2134.085-1987.921h29.365v158.874h-29.365z"/><circle cx="-2119.403" cy="-1908.484" r="14.128"/></g><g transform="translate(129.307 117.378) scale(.05597)" stroke-linejoin="round"><path d="M-2079.744-1987.266h29.365v158.874h-29.365z"/><circle r="14.128" cy="-1907.829" cx="-2065.062"/></g><path d="M5.944 4.067h9.292V17.11H5.944z" stroke-linejoin="round" stroke-width=".529"/><path d="M7.464 6.142V4.067m3.154 2.047V4.039m3.098 2.103V4.067M7.464 15.035v2.074m3.154-2.046v2.074m3.126-2.074v2.074m-7.8-6.549h.698m1.612 0H9.74m1.7 0h1.485m1.615-.028h.698" stroke-width=".529"/></g></g></svg>