<svg xmlns="http://www.w3.org/2000/svg" width="276.139" height="96"><g fill="#ee8313"><g style="line-height:1.25;-inkscape-font-specification:Roboto"><path style="-inkscape-font-specification:'Roboto Bold Italic'" d="M106.356 49.474q-.325 2.889-1.97 5.127-1.646 2.218-4.285 3.424-2.64 1.186-5.7 1.128-2.755-.057-4.802-1.262-2.046-1.225-3.232-3.52-1.167-2.315-1.32-5.318-.134-2.352.478-5.853.631-3.5 2.219-6.217 1.607-2.716 3.806-4.304 3.1-2.218 7.078-2.142 4.323.077 6.848 2.678 2.544 2.582 2.793 7.192l-5.586-.019q0-2.64-1.052-3.864-1.052-1.224-3.27-1.3-2.87-.096-4.726 2.046-1.836 2.143-2.467 6.255-.612 3.998-.536 5.987.096 2.525 1.129 3.73 1.033 1.186 2.888 1.244 2.563.095 4.094-1.205 1.549-1.32 2.046-3.769zm2.391 9.296l4.84-27.85 8.684.019q4.84.019 7.268 1.97 2.43 1.951 2.2 5.49-.268 4.227-4.878 6.178 1.665.574 2.583 2.162.918 1.568.784 3.71-.268 3.941-3.099 6.14-2.812 2.182-7.69 2.182zm7.728-12.127l-1.32 7.518 4.418.019q2.066 0 3.463-1.014 1.396-1.033 1.664-2.774.268-1.721-.478-2.678-.727-.975-2.468-1.052zm.688-4.055l3.807.038q2.123-.038 3.462-.994 1.358-.957 1.626-2.66.478-3.366-3.539-3.385l-4.132-.02zm32.442 10.444h-9.717l-2.87 5.739h-6.178l14.882-27.851h5.184l5.298 27.85h-5.719zm-7.422-4.648h6.714l-1.568-10.368zm24.159.574l-1.721 9.813h-5.605l4.84-27.851 9.755.019q4.514 0 7.097 2.506 2.582 2.505 2.257 6.541-.306 4.094-3.424 6.542-3.099 2.449-7.92 2.449zm.785-4.649l4.667.039q2.257 0 3.75-1.167 1.491-1.167 1.778-3.156.287-1.99-.65-3.176-.918-1.186-2.736-1.262l-5.28-.02zm27.028-13.389l-4.036 23.24h7.46l4.036-23.24h5.624l-4.036 23.24h7.383l4.036-23.24h5.605l-4.074 23.413h3.577l-2.296 11.132h-5.03l1.166-6.694h-29.878l4.84-27.851zm49.447 0h5.815l-4.84 27.85h-5.623l3.156-18.133-13.753 18.134h-5.796l4.84-27.851h5.604l-3.156 18.152zm16.909 16.47h-3.347l-1.99 11.38h-5.604l4.84-27.85h5.604l-1.951 11.151h2.334l8.55-11.151h7.192l-10.865 13.466 6.619 14.385h-6.408z" aria-label="СВАРЩИК" font-weight="700" font-size="29.207" font-family="Roboto" letter-spacing="0" word-spacing="0" fill="#fff" font-style="italic"/></g><path d="M76.396 74.227l2.485-15.752L58.723 81.03l18.279-24.365-17.178 5.687 16.66-8.3-13.867-7.324 14.877 4.132-2.995-5.917 4.908 4.353-3.147-27.364 5.244 25.993 3.073-16.637-2.758 20.007c-.066 1.72-.703 3.4.217 6.206l2.606 8.833-3.659-6.875z"/><g stroke-width="1.848" color="#000" font-weight="400" font-family="sans-serif"><path style="line-height:normal;font-variant-ligatures:normal;font-variant-position:normal;font-variant-caps:normal;font-variant-numeric:normal;font-variant-alternates:normal;font-feature-settings:normal;text-indent:0;text-align:start;text-decoration-line:none;text-decoration-style:solid;text-decoration-color:#000;text-transform:none;text-orientation:mixed;white-space:normal;shape-padding:0;isolation:auto;mix-blend-mode:normal;solid-color:#000;solid-opacity:1" d="M55.381 44.95L47.19 49.3l9.268-2.99zm-16.919 7.735l5.578-2.942-5.306 1.343zm2.548.201l5.864-2.69-8.078 2.448z" overflow="visible"/><path d="M56.457 46.31l-7.143 3.543 7.11-2.315z" style="line-height:normal;font-variant-ligatures:normal;font-variant-position:normal;font-variant-caps:normal;font-variant-numeric:normal;font-variant-alternates:normal;font-feature-settings:normal;text-indent:0;text-align:start;text-decoration-line:none;text-decoration-style:solid;text-decoration-color:#000;text-transform:none;text-orientation:mixed;white-space:normal;shape-padding:0;isolation:auto;mix-blend-mode:normal;solid-color:#000;solid-opacity:1" overflow="visible"/></g><path d="M35.7 15.67l-4.593.83a.56.56 0 00-.172.036L25.4 17.735l-.067.033c-5.83 3.01-5.869 4.604-7.129 6.298l-1.192.51h-.001a.561.561 0 00-.165.07l-.081.035-.052.082a.559.559 0 00-.082.132l-2.258 3.625.137-.15c-1.321 1.005-1.856 2.393-2.098 3.798-1.31 2.732-1.68 6.754-1.661 10.598.019 3.857.447 7.502.871 9.428 1.964 8.92 7.025 17.327 12.692 23.19 1.559 2.21 4.819 4.513 8.574 6.227 3.755 1.713 7.995 2.819 11.541 2.382l.035-.004.036-.01c4.004-1.022 6.102-3.048 7.205-5.343 1.086-2.26 1.258-4.725 1.625-6.787l5.54-9.007.007-.013c.247-.454.332-1.021.408-1.717a21.35 21.35 0 00.107-2.27 21.002 21.002 0 00-.1-2.126 6.61 6.61 0 00-.124-.783c-.02-.085-.1-.17-.12-.248 1.75-6.393 2.386-12.824 3.421-19.348l.485-2.642c-1.347-1.777-4.714-6.512-8.582-9.604l-2.956-4.544-.086-.061c-5.278-3.779-10.887-3.607-15.568-3.812zm-.177 1.36c4.307.157 10.67.202 15.082 3.328l2.855 4.388c1.76 2.701 2.844 5.61 3.97 8.55-3.24-.29-6.511-.82-9.83-1.725-2.242-5.266-7.1-10.168-12.077-14.541zm-3.338.5c.288.183 10.392 6.905 15.415 14.04-6.109-.47-20.624-11.663-20.563-11.796 0 0 9.82 9.428 15.926 11.814 5.7 2.228 18.807 3.46 18.807 3.46l-.391.995-.01.06c-1.056 6.644-1.681 13.101-3.437 19.445l-.09.328.25.233c-.164-.153-.051-.07-.016.08.035.148.07.377.1.648.058.542.093 1.263.094 2.006.001.742-.03 1.51-.1 2.147-.069.637-.208 1.17-.28 1.301v.002l-1.148 1.867-3.665 1.882.596-2.881 3.165-2.55-3.435 1.011-.74-1L42.1 58.757l-1.032.523-5.217-2.903 5.194 5.139.376 3.97.002.022c-.174.428-2.887 7.088-3.963 10.482-.129.405.025.761.208 1.012.171.234 6.053 1.156 6.334 1.264-2.607-.015-6.046-.517-7.346-.892-.35-.102-.098-1.217.322-2.065.146-.5.353-1.134.573-1.85.441-1.434.94-3.206 1.137-5.022l.01-.08-.016-.081c-.792-4.321-3.74-7.72-5.568-9.662l-.008-.007-.007-.008c-2.618-2.577-4.517-4.488-6.056-7.174-4.593-8.015-6.15-12.668-9.24-25.969l.42-.179c3.342 13.475 12.196 26.797 14.49 29.172-4.668-6.65-9.735-17.43-13.527-29.841 1.298-1.822 1.14-2.98 6.606-5.812zm-15.266 9.023c2.955 12.611 4.633 17.545 9.152 25.431 1.62 2.826 3.612 4.826 6.226 7.399 1.777 1.888 4.514 5.121 5.258 9.018-.19 1.66-.647 3.34-1.074 4.727-.217.706-.424 1.337-.579 1.866-1.308 4.009.767 3.401 4.163 3.746 1.808.005 4.416-.068 5.407-.645-3.21-.694-4.753-.953-6.722-1.609a.613.613 0 01-.176-.145c-.05-.069-.022-.087-.046-.011 1.03-3.248 3.69-9.789 3.905-10.319l8.95 1.437-5.323 9.5 6.59-9.458 4.092-3.33-4.48 7.284-.018.105c-.396 2.174-.57 4.562-1.55 6.602-.977 2.033-2.704 3.767-6.437 4.73-3.2.384-7.289-.64-10.904-2.29-3.627-1.656-6.786-3.959-8.122-5.854l-.025-.036-.031-.03c-5.548-5.72-10.543-14.018-12.458-22.717-.394-1.788-.827-5.418-.846-9.194-.018-3.775.4-7.726 1.561-10.134l.036-.074.013-.081c.207-1.303.62-2.384 1.706-3.21l.084-.061zm37.452-2.462c1.727 1.826 5.665 7.573 7.108 9.494-.92-.024-3.124-.227-4.048-.29-.588-1.777-2.227-7.377-3.06-9.204zM40.925 34.985s-3.802 15.78-4.603 19.874c5.683.633 19.519 2.131 19.519 2.131l4.873-18.233-1.437-.294c-.058-.022-18.352-3.478-18.352-3.478zm0 0l18.464 4.369L55.84 56.99l-18.553-3.036.082-.726 17.498 3.092 2.38-11.584-17.673-2.74.625-3.071 17.127 4.507L58.1 40l-17.65-2.775zm-.476 2.24l16.303 3.656-.279 1.241L40.2 38.925zm-.874 4.77l16.344 3.635-1.933 9.413-16.616-1.815zm2.699 17.93l9.754 1.723.704 1.104-.881 3.634-9.361-1.501-.378-3.98-.728-.527z" style="line-height:normal;font-variant-ligatures:normal;font-variant-position:normal;font-variant-caps:normal;font-variant-numeric:normal;font-variant-alternates:normal;font-feature-settings:normal;text-indent:0;text-align:start;text-decoration-line:none;text-decoration-style:solid;text-decoration-color:#000;text-transform:none;text-orientation:mixed;white-space:normal;shape-padding:0;isolation:auto;mix-blend-mode:normal;solid-color:#000;solid-opacity:1" color="#000" font-weight="400" font-family="sans-serif" overflow="visible" fill="#fff"/><path d="M46.346 0C45.6 0 45 .6 45 1.346V3.15a45 45 0 00-5.72.713l-.458-1.705a1.343 1.343 0 00-1.648-.951l-3.195.857a1.343 1.343 0 00-.952 1.649l.465 1.738a45 45 0 00-5.316 2.211l-.905-1.566a1.344 1.344 0 00-1.84-.492l-2.863 1.654a1.343 1.343 0 00-.494 1.838l.887 1.537a45 45 0 00-4.565 3.521l-1.263-1.265a1.344 1.344 0 00-1.904 0l-2.34 2.34a1.344 1.344 0 000 1.904l1.28 1.28a45 45 0 00-3.523 4.556l-1.55-.895a1.343 1.343 0 00-1.838.494l-1.654 2.864a1.344 1.344 0 00.492 1.84l1.543.89a45 45 0 00-2.178 5.334l-1.748-.469a1.343 1.343 0 00-1.649.952l-.857 3.195c-.193.72.231 1.455.951 1.648l1.735.465A45 45 0 003.107 45H1.346C.6 45 0 45.6 0 46.346v3.308C0 50.4.6 51 1.346 51H3.15a45 45 0 00.713 5.72l-1.705.458a1.343 1.343 0 00-.951 1.648l.857 3.195c.193.72.929 1.145 1.649.952l1.738-.465a45 45 0 002.211 5.316l-1.566.905a1.344 1.344 0 00-.492 1.84l1.654 2.863a1.343 1.343 0 001.838.494l1.537-.887a45 45 0 003.521 4.565l-1.265 1.263a1.344 1.344 0 000 1.904l2.34 2.34a1.344 1.344 0 001.904 0l1.28-1.28a45 45 0 004.556 3.523l-.895 1.55a1.343 1.343 0 00.494 1.838l2.864 1.654a1.344 1.344 0 001.84-.492l.89-1.543a45 45 0 005.334 2.178l-.469 1.748c-.193.72.231 1.456.952 1.649l3.195.857a1.342 1.342 0 001.648-.951l.465-1.735a45 45 0 005.713.786v1.761C45 95.4 45.6 96 46.346 96h3.308C50.4 96 51 95.4 51 94.654V92.85a45 45 0 005.72-.713l.458 1.705c.193.72.928 1.144 1.648.951l3.195-.857a1.343 1.343 0 00.952-1.649l-.465-1.738a45 45 0 005.316-2.211l.905 1.566a1.344 1.344 0 001.84.492l2.863-1.654a1.343 1.343 0 00.494-1.838l-.887-1.537a45 45 0 004.565-3.521l1.263 1.265a1.344 1.344 0 001.904 0l2.34-2.34a1.344 1.344 0 000-1.904l-1.28-1.28a45 45 0 003.523-4.556l1.55.895a1.343 1.343 0 001.838-.494l1.654-2.864a1.344 1.344 0 00-.492-1.84l-1.543-.89a45 45 0 001.487-3.496H86.69A42 42 0 0148 90 42 42 0 016 48 42 42 0 0148 6a42 42 0 0136.89 22.09h3.596l1.418-.819a1.344 1.344 0 00.492-1.84l-1.654-2.863a1.343 1.343 0 00-1.838-.494l-1.537.887a45 45 0 00-3.521-4.565l1.265-1.263a1.344 1.344 0 000-1.904l-2.34-2.34a1.344 1.344 0 00-1.904 0l-1.28 1.28a45 45 0 00-4.556-3.523l.895-1.55a1.343 1.343 0 00-.494-1.838l-2.864-1.654a1.344 1.344 0 00-1.84.492l-.89 1.543a45 45 0 00-5.334-2.178l.469-1.748a1.343 1.343 0 00-.952-1.649l-3.195-.857a1.343 1.343 0 00-1.648.951l-.465 1.735A45 45 0 0051 3.107V1.346C51 .6 50.4 0 49.654 0z"/></g></svg>