<svg xmlns="http://www.w3.org/2000/svg" viewBox="0 0 215 215"><circle cx="107.5" cy="107.5" r="107.5" fill="#fff"/><path data-name="Ok" d="M107.45 110.9a29.82 29.82 0 10-29.81-29.82 29.86 29.86 0 0029.81 29.82m0-42.18a12.37 12.37 0 11-12.36 12.36 12.37 12.37 0 0112.36-12.36m12.09 66.45a55.77 55.77 0 0017.35-7.2 8.77 8.77 0 10-9.32-14.86 37.93 37.93 0 01-40.14 0A8.786 8.786 0 1078.1 128a55 55 0 0017.35 7.2l-16.7 16.7a8.74 8.74 0 000 12.37 9.07 9.07 0 006.18 2.59 8.5 8.5 0 006.19-2.59l16.43-16.43 16.45 16.4a8.75 8.75 0 0012.37-12.37z"/></svg>