<svg xmlns="http://www.w3.org/2000/svg" version="1.1" id="svg9" width="40" height="40"><defs id="defs4"><style id="style2"/></defs><g id="g831" stroke-linecap="round" stroke-linejoin="round" stroke-miterlimit="4" stroke-dasharray="none" stroke-opacity="1"><circle r="20" cy="20" cx="20" id="path816" opacity="1" fill="#ffb950" fill-opacity="1" stroke="none" stroke-width="2.293"/><path id="path820" d="M27.8 28.487c-2.728 2.428-5.866.887-10.892-4.11-3.306-3.287-5.668-6.75-6.119-9.519-.225-1.385 1.184-2.836 1.184-2.836s1.633-2.008 3.088-1.535c1.164.378 3.467 3.776 3.718 4.895.144.643-2.411 1.702-2.424 2.703-.017 1.245 1.533 2.644 2.168 3.31.527.554 2.665 2.781 3.784 2.294 1.116-.486 1.712-2.206 2.402-2.222.955-.02 3.832 2.864 4.444 4.515.42 1.135-.597 1.833-1.353 2.505z" fill="none" fill-opacity=".71" stroke="#272c3f" stroke-width="1.526"/></g></svg>