<svg xmlns="http://www.w3.org/2000/svg" width="512" height="512"><g transform="translate(77.626 77.626) scale(2.7871)"><circle r="91.852" cy="64" cx="64" fill="#ffb342"/><g fill="#1c2752"><path d="M105.008 41.427l7.644-7.644-18.435-18.435-7.644 7.644c-3.058-1.709-6.206-2.968-9.533-3.957V8.243H50.96v10.792c-3.327.989-6.475 2.248-9.533 3.957l-7.644-7.644-18.435 18.435 7.644 7.644c-1.709 3.058-2.968 6.206-3.957 9.533H8.243v26.08h10.792c.989 3.327 2.248 6.475 3.957 9.533l-7.644 7.644 18.435 18.435 7.644-7.644c3.058 1.709 6.206 2.968 9.533 3.957v10.792h26.08v-10.792c3.327-.989 6.475-2.248 9.533-3.957l7.644 7.644 18.435-18.435-7.644-7.644c1.709-3.058 2.968-6.206 3.957-9.533h10.792V50.96h-10.792c-.989-3.327-2.338-6.475-3.957-9.533zm11.152 32.016h-9.983l-.36 1.349a42.915 42.915 0 01-4.586 11.151l-.72 1.17 7.105 7.104-13.31 13.31-7.104-7.105-1.169.72a42.915 42.915 0 01-11.151 4.586l-1.35.36v10.072H54.648v-9.983l-1.349-.36a42.915 42.915 0 01-11.151-4.586l-1.17-.72-7.104 7.105-13.4-13.4 7.105-7.104-.72-1.169a42.915 42.915 0 01-4.586-11.151l-.36-1.35H11.84V54.558h9.983l.36-1.349a42.915 42.915 0 014.586-11.151l.72-1.17-7.105-7.104 13.31-13.31 7.104 7.105 1.169-.72a42.915 42.915 0 0111.151-4.586l1.35-.36V11.84h18.885v9.983l1.349.36a42.915 42.915 0 0111.151 4.586l1.17.72 7.104-7.105 13.31 13.31-7.105 7.104.72 1.169a42.915 42.915 0 014.586 11.151l.36 1.35h10.162z"/><path d="M64 35.222c-15.828 0-28.778 12.95-28.778 28.778S48.172 92.778 64 92.778 92.778 79.828 92.778 64 79.828 35.222 64 35.222zm0 53.959C50.15 89.18 38.82 77.849 38.82 64c0-13.85 11.33-25.18 25.18-25.18S89.18 50.15 89.18 64 77.85 89.18 64 89.18z"/><path d="M103.707 42.143l7.402-7.401L93.26 16.89l-7.402 7.402c-2.961-1.655-6.009-2.874-9.23-3.832V10.01H51.373v10.45c-3.222.958-6.27 2.177-9.23 3.832l-7.402-7.402L16.89 34.74l7.402 7.402c-1.655 2.961-2.874 6.009-3.832 9.23H10.01v25.253h10.45c.958 3.222 2.177 6.27 3.832 9.23l-7.402 7.402 17.85 17.851 7.402-7.402c2.961 1.655 6.009 2.874 9.23 3.832v10.45h25.253v-10.45c3.222-.958 6.27-2.177 9.23-3.832l7.402 7.402 17.851-17.85-7.402-7.402c1.655-2.961 2.874-6.009 3.832-9.23h10.45V51.373h-10.45c-.958-3.222-2.264-6.27-3.832-9.23zm10.798 31h-9.666l-.348 1.306a41.554 41.554 0 01-4.44 10.798l-.697 1.132 6.879 6.88-12.888 12.887-6.879-6.88-1.132.697a41.554 41.554 0 01-10.798 4.441l-1.306.348v9.753H54.944v-9.666l-1.306-.348a41.554 41.554 0 01-10.798-4.44l-1.132-.697-6.88 6.879-12.974-12.975 6.88-6.879-.697-1.132a41.554 41.554 0 01-4.441-10.798l-.348-1.306h-9.753V54.857h9.666l.348-1.306a41.554 41.554 0 014.44-10.798l.697-1.132-6.879-6.88 12.888-12.887 6.879 6.88 1.132-.697a41.554 41.554 0 0110.798-4.441l1.306-.348v-9.753h18.286v9.666l1.306.348a41.554 41.554 0 0110.798 4.44l1.132.697 6.88-6.879 12.887 12.888-6.88 6.879.697 1.132a41.554 41.554 0 014.441 10.798l.348 1.306h9.84z"/><path d="M64 36.135c-15.326 0-27.865 12.54-27.865 27.865 0 15.326 12.54 27.865 27.865 27.865 15.326 0 27.865-12.54 27.865-27.865 0-15.326-12.54-27.865-27.865-27.865zm0 52.247C50.59 88.382 39.618 77.41 39.618 64c0-13.41 10.972-24.382 24.382-24.382 13.41 0 24.382 10.972 24.382 24.382 0 13.41-10.972 24.382-24.382 24.382z"/></g></g></svg>