<svg xmlns="http://www.w3.org/2000/svg" viewBox="0 0 215 215"><circle cx="107.5" cy="107.5" r="107.5" fill="#fff"/><path data-name="Skype" d="M124.08 99.06l-19.39-4.37C97.32 92.99 89 90.59 89 83.53s5.67-12.11 16.43-12.11c21.66 0 19.87 15.13 30.63 15.13 5.66 0 10.54-3.16 10.54-9C146.6 64 125.05 54 106.92 54c-19.68 0-40.34 8.17-40.34 30.76 0 10.88 3.7 22.62 24.8 28l26.19 6.64c7.93 2 10.27 6.54 10.27 10.63 0 6.79-7.05 14-19.08 14-23.52 0-20.24-18.91-32.84-18.91-5.66 0-10.08 3.89-10.08 9.54 0 11 13.45 26 42.92 26 28 0 42.24-14.18 42.24-32.54 0-11.81-5.68-24.26-26.92-29.06z"/></svg>