<svg display="none" xmlns="http://www.w3.org/2000/svg">
  <symbol id="Ok" viewBox="0 0 215 215">
    <g>
      <circle cx="107.5" cy="107.5" r="107.5"/><path d="M107.45 110.9a29.82 29.82 0 10-29.81-29.82 29.86 29.86 0 0029.81 29.82m0-42.18a12.37 12.37 0 11-12.36 12.36 12.37 12.37 0 0112.36-12.36m12.09 66.45a55.77 55.77 0 0017.35-7.2 8.77 8.77 0 10-9.32-14.86 37.93 37.93 0 01-40.14 0A8.786 8.786 0 1078.1 128a55 55 0 0017.35 7.2l-16.7 16.7a8.74 8.74 0 000 12.37 9.07 9.07 0 006.18 2.59 8.5 8.5 0 006.19-2.59l16.43-16.43 16.45 16.4a8.75 8.75 0 0012.37-12.37z" fill="#1c2752"/>  
   </g>    
  </symbol>
  <symbol id="VK" viewBox="0 0 215 215">
    <g>
      <circle cx="107.5" cy="107.5" r="107.5"/><path d="M111.44 147.14C69.76 147.14 46 118.56 45 71h20.87c.69 34.9 16.08 49.69 28.27 52.74V71h19.67v30.1c12-1.29 24.69-15 28.95-30.1h19.67c-3.28 18.59-17 32.31-26.75 37.95A60.16 60.16 0 01167 147.14h-21.64c-4.65-14.48-16.24-25.68-31.55-27.2v27.2z" fill="#1c2752"/>
   </g>    
  </symbol>
  <symbol id="Viber" viewBox="0 0 215 215">
    <g>
      <circle cx="107.5" cy="107.5" r="107.5"/><path d="M148.37 66.83c-2.75-2.55-13.9-10.64-38.73-10.75 0 0-29.28-1.77-43.55 11.33-8 7.94-10.74 19.57-11 34s-.68 41.43 25.37 48.76v11.18s-.17 4.52 2.81 5.45c3.6 1.11 5.72-2.33 9.16-6 1.89-2 4.5-5 6.46-7.31 17.82 1.5 31.51-1.93 33.07-2.44 3.6-1.16 23.95-3.77 27.26-30.79 3.38-27.88-1.69-45.49-10.85-53.43zm3 51.4c-2.79 22.55-19.3 24-22.34 24.95a92.89 92.89 0 01-28.46 2.42s-11.25 13.6-14.77 17.14a1.89 1.89 0 01-1.63.66c-.6-.15-.77-.86-.76-1.91 0-1.5.09-18.58.09-18.58-22-6.12-20.74-29.11-20.49-41.15s2.51-21.91 9.23-28.54c12.07-10.94 36.94-9.3 36.94-9.3 21 .09 31.07 6.41 33.4 8.53 7.75 6.64 11.7 22.51 8.81 45.77z" fill="#1c2752"/><path d="M119.86 102.17a1.4 1.4 0 01-1.4-1.33c-.24-4.77-2.48-7.11-7.06-7.35a1.402 1.402 0 01.14-2.8c6 .32 9.41 3.78 9.72 10a1.41 1.41 0 01-1.33 1.47z" fill="#1c2752"/><path d="M127.06 104.59a1.41 1.41 0 01-1.37-1.44 16.27 16.27 0 00-4.19-11.88c-2.92-3.19-6.92-4.92-12.23-5.31a1.404 1.404 0 11.2-2.8c6 .43 10.72 2.53 14.1 6.22a19.13 19.13 0 014.93 13.83 1.41 1.41 0 01-1.44 1.38z" fill="#1c2752"/><path d="M134.44 107.47a1.4 1.4 0 01-1.4-1.39c-.07-8.47-2.61-15.21-7.56-20a26 26 0 00-18.63-7.36 1.41 1.41 0 010-2.81A28.71 28.71 0 01127.44 84c5.51 5.37 8.33 12.78 8.4 22a1.39 1.39 0 01-1.39 1.41zm-22.69 12.11a3.86 3.86 0 003-1.15l2.08-2.6a4.53 4.53 0 015.77-.8 59 59 0 015.15 3.28c1.56 1.16 4.77 3.83 4.78 3.83a4 4 0 01.85 5.19 21.69 21.69 0 01-4.32 5.31 8.55 8.55 0 01-4.38 2.12 2.76 2.76 0 01-.64 0 5.88 5.88 0 01-1.86-.29v-.07c-2.21-.62-5.9-2.18-12-5.57a70.72 70.72 0 01-10.18-6.57 51.18 51.18 0 01-4.55-4l-.16-.15-.15-.16-.15-.15-.16-.15a54.36 54.36 0 01-4-4.55 71.67 71.67 0 01-6.74-10.1c-3.39-6.14-5-9.82-5.57-12h-.07a5.87 5.87 0 01-.28-1.86 2.72 2.72 0 010-.64 8.7 8.7 0 012.15-4.5 21.65 21.65 0 015.31-4.32 4 4 0 015.18.84s2.68 3.22 3.83 4.78S97 88.63 98 90.4a4.55 4.55 0 01-.8 5.77l-2.61 2.07a3.86 3.86 0 00-1.14 3s3.87 14.65 18.3 18.34z" fill="#1c2752"/>
    </g>   
  </symbol>
  <symbol id="Skype" viewBox="0 0 215 215">
    <g>
      <circle cx="107.5" cy="107.5" r="107.5"/><path d="M124.08 99.06l-19.39-4.37C97.32 92.99 89 90.59 89 83.53s5.67-12.11 16.43-12.11c21.66 0 19.87 15.13 30.63 15.13 5.66 0 10.54-3.16 10.54-9C146.6 64 125.05 54 106.92 54c-19.68 0-40.34 8.17-40.34 30.76 0 10.88 3.7 22.62 24.8 28l26.19 6.64c7.93 2 10.27 6.54 10.27 10.63 0 6.79-7.05 14-19.08 14-23.52 0-20.24-18.91-32.84-18.91-5.66 0-10.08 3.89-10.08 9.54 0 11 13.45 26 42.92 26 28 0 42.24-14.18 42.24-32.54 0-11.81-5.68-24.26-26.92-29.06z" fill="#1c2752"/>
    </g>   
  </symbol>
</svg>



 
 