<svg xmlns="http://www.w3.org/2000/svg">
<symbol  id="lattice" viewBox="0 0 21.167 21.167">
<g fill="none" stroke="#ffb342"><circle r="10.248" cy="10.589" cx="10.59" stroke-width=".529"/><g stroke-width="9.454"><g transform="translate(129.307 117.405) scale(.05597)" stroke-linejoin="round"><path d="M-2191.447-1987.738h29.365v158.874h-29.365z"/><circle r="14.128" cy="-1908.301" cx="-2176.765"/></g><g stroke-linejoin="round" transform="translate(129.222 117.415) scale(.05597)"><path d="M-2134.085-1987.921h29.365v158.874h-29.365z"/><circle cx="-2119.403" cy="-1908.484" r="14.128"/></g><g transform="translate(129.307 117.378) scale(.05597)" stroke-linejoin="round"><path d="M-2079.744-1987.266h29.365v158.874h-29.365z"/><circle r="14.128" cy="-1907.829" cx="-2065.062"/></g><path d="M5.944 4.067h9.292V17.11H5.944z" stroke-linejoin="round" stroke-width=".529"/><path d="M7.464 6.142V4.067m3.154 2.047V4.039m3.098 2.103V4.067M7.464 15.035v2.074m3.154-2.046v2.074m3.126-2.074v2.074m-7.8-6.549h.698m1.612 0H9.74m1.7 0h1.485m1.615-.028h.698" stroke-width=".529"/></g></g>
</symbol>
<symbol  id="ferma" viewBox="0 0 21.167 21.167">
<g stroke="#ffb342" transform="translate(445.846 440.979) scale(.26458)" fill="none"><g stroke-linejoin="round" stroke-width="1.509" transform="translate(-701.328 -593.992) scale(.66247)"><ellipse cx="-1424.762" cy="-1534.134" rx="37.216" ry=".656"/><ellipse ry=".656" rx="37.216" cy="-1540.581" cx="-1424.762"/><ellipse cx="-1424.469" cy="-1577.894" rx="37.216" ry=".656"/><ellipse ry=".656" rx="37.216" cy="-1583.581" cx="-1424.453"/><ellipse transform="rotate(-90)" cx="1559.237" cy="-1455.773" rx="17.365" ry=".755"/><ellipse ry=".755" rx="17.365" cy="-1450.757" cx="1559.237" transform="rotate(-90)"/><ellipse transform="rotate(-90)" cx="1559.237" cy="-1426.473" rx="17.365" ry=".755"/><ellipse ry=".755" rx="17.365" cy="-1422.757" cx="1559.237" transform="rotate(-90)"/><ellipse transform="rotate(-90)" cx="1559.237" cy="-1398.266" rx="17.365" ry=".755"/><ellipse ry=".755" rx="17.365" cy="-1393.266" cx="1559.304" transform="rotate(-90)"/><ellipse ry=".861" rx="19.816" cy="-1992.334" cx="676.62" transform="rotate(-60.937)"/><ellipse transform="rotate(-60.937)" cx="678.838" cy="-1988.344" rx="19.816" ry=".861"/><ellipse transform="scale(-1 1) rotate(-60.937)" cx="2060.585" cy="497.963" rx="19.816" ry=".861"/><ellipse ry=".861" rx="19.816" cy="501.953" cx="2062.802" transform="scale(-1 1) rotate(-60.937)"/></g><circle stroke-width="2.535" r="38.733" cy="-1626.69" cx="-1645.089"/></g>
</symbol>
<symbol  id="svarka" viewBox="0 0 21.167 21.167">
<g stroke-width="2" transform="translate(576.564 439.493) scale(.26458)" fill="none" stroke="#ffb342"><circle cx="-2139.142" cy="-1621.077" r="38.733"/><path d="M-2138.875-1593.478c7.328-2.2 12.654-6.219 16.083-11.963 2.183-5.307 4.04-10.885 4.121-17.945l-.797-14.488c-1.491-4.888-4.677-7.596-8.64-9.305-9.046-2.347-16.562-1.855-23.129.4-4.121 1.52-7.04 4.777-7.975 10.899l-.4 15.153c1.534 8.124 3.165 12.788 6.115 17.014 3.218 4.003 6.55 7.966 14.622 10.235z"/><path d="M-2154.028-1645.052l2.184 15.959h25.565l.962-16.49m-26.527 31.575c2.036 12.393 6.675 18.406 12.969 20.53 6.167-1.07 10.187-8.436 12.596-20.53-9.216 5.679-17.795 6.026-25.565 0m25.565-15.085c4.116-1.078 4.695-4.704 6.81-8.781m-32.375 8.781c-3.029-.582-4.628-4.713-6.908-9.54"/><path d="M-2151.844-1629.093h25.565v15.085h-25.565z"/><path d="M-2149.206-1626.267h20.29v9.433h-20.29z"/></g>
</symbol>
<symbol  id="avto" viewBox="0 0 21.167 21.167">
<g transform="translate(576.564 439.493) scale(.26458)" fill="none" stroke="#ffb342"><path d="M-2147.805-1599.085c3.352-5.244 5.499-10.316 9.327-10.647 4.414-.383 6.987 4.911 10.055 9.827m7.274-5.845c-3.849-4.888-7.966-8.976-7.02-12.7 1.092-4.294 6.935-4.983 12.588-6.263m-3.447-8.776c-5.773 2.323-10.156 4.994-13.465 3.041-3.817-2.25-2.84-8.053-2.485-13.837m-27.785 22.33c6.062 1.41 11.547 1.794 13.137 5.292 1.835 4.034-2.295 8.225-5.904 12.76m10.3-40.012c.465 6.205 1.788 11.452-1.075 14.016-3.3 2.954-8.536.266-13.94-1.825m30.559 19.797a1.652 1.652 0 01-1.652 1.651 1.652 1.652 0 01-1.652-1.65 1.652 1.652 0 011.652-1.653 1.652 1.652 0 011.652 1.652zm-14.095 1.1a1.652 1.652 0 01-1.652 1.652 1.652 1.652 0 01-1.651-1.652 1.652 1.652 0 011.651-1.653 1.652 1.652 0 011.652 1.653zm-5.401-13.064a1.652 1.652 0 01-1.652 1.651 1.652 1.652 0 01-1.652-1.65 1.652 1.652 0 011.652-1.653 1.652 1.652 0 011.652 1.652zm10.756-9.175a1.652 1.652 0 01-1.653 1.652 1.652 1.652 0 01-1.65-1.652 1.652 1.652 0 011.65-1.652 1.652 1.652 0 011.653 1.652zm12.049 7.394a1.652 1.652 0 01-1.652 1.652 1.652 1.652 0 01-1.651-1.652 1.652 1.652 0 011.651-1.651 1.652 1.652 0 011.652 1.651zm-7.854 4.596a4.911 4.911 0 01-4.91 4.91 4.911 4.911 0 01-4.912-4.91 4.911 4.911 0 014.91-4.911 4.911 4.911 0 014.911 4.91zm18.725 0a23.635 23.635 0 01-23.636 23.635 23.635 23.635 0 01-23.636-23.635 23.635 23.635 0 0123.635-23.636 23.635 23.635 0 0123.636 23.636zm3.33 0a26.966 26.966 0 01-26.967 26.965 26.966 26.966 0 01-26.965-26.965 26.966 26.966 0 0126.965-26.967 26.966 26.966 0 0126.967 26.967z" stroke-width="2.217" stroke-linejoin="round"/><circle cx="-2139.142" cy="-1621.077" r="38.733" stroke-width="2.535"/></g>
</symbol>
<symbol  id="svarkav" viewBox="0 0 21.167 21.167">
<g transform="translate(576.564 439.493) scale(.26458)" fill="none" stroke="#ffb342"><circle cx="-2139.142" cy="-1621.077" r="38.733" stroke-width="2.535"/><path d="M-2151.015-1625.778c-.547-.089-.464.566.626 1.618 1.25 1.203 1.283 1.368.584 2.824l-.742 1.546-2.243-2.332c-1.666-1.732-2.412-2.276-2.902-2.116-.49.16.083.944 2.236 3.054 3.897 3.821 4.127 4.166 3.439 5.169l-.577.84-1.364-1.178c-.75-.647-1.16-.923-.913-.612.1.125.143.29.138.497.13.091.254.205.36.347.046.06.077.104.111.153.151.047.29.109.413.22l.025-.057 1.339 1.077c.736.592 1.945 1.415 2.687 1.827 1.148.639 1.303.93 1.04 1.95-.169.659-.094 1.168.166 1.132.26-.035 3.174 2.686 6.473 6.049 4.56 4.647 5.951 6.303 5.797 6.903l-.203.789-1.211-1.014-1.211-1.015 1.02 1.076c1.364 1.437 3.063 1.78 4.011.807.683-.7.536-.94-2.417-3.927-2.768-2.801-3.109-3.317-2.85-4.321l.293-1.14 3.718 3.754c5.717 5.774 7.312 7.264 4.865 4.55-1.198-1.33-2.373-2.542-2.612-2.692-.239-.15-1.165-1.131-2.058-2.18-1.317-1.546-1.498-1.99-.962-2.36.906-.624 2.574-.737 3.622-.246.717.336.601.38-.652.253-.836-.084-1.623-.034-1.747.112-.124.145 1.45 1.903 3.5 3.904l3.729 3.64h3.532l-12.94-13.13c-9.14-9.273-11.811-11.99-12.395-13.16a3.088 3.088 0 01-.232-.126c-.288-.172-.362-.206-.465-.296-.263-.053-.508-.202-.641-.43l-.972-.876c-.022-.02-.043-.035-.065-.055h0c-.105-.04-.286-.112-.562-.225.17.056.338.117.507.178-.492-.425-.898-.67-1.18-.755a.948.948 0 00-.118-.028zm-1.106 1.789c-.04-.013-.133.101-.31.331-.22.285.03.904.584 1.455.532.527 1.08.982 1.22 1.011.14.029-.164-.36-.673-.867-.51-.506-.888-1.184-.84-1.507.042-.273.058-.41.02-.423zm4.067 2.393c.308.078.7.544 1.507 1.36 1.475 1.489 1.592 1.783 1.048 2.614-.824 1.259-1.687 1.165-3.204-.349-.909-.907-1.146-1.452-.835-1.926.829-1.26 1.088-1.8 1.484-1.7zm-8.551-1.637l-.44.812c-.362.67-.08 1.152 1.624 2.77 1.134 1.076 2.176 1.98 2.315 2.01.14.028-.658-.812-1.772-1.871-1.418-1.346-1.983-2.196-1.878-2.823zm7.057 3.364l1.463 1.483c1.362 1.38 1.737 1.685 1.795 1.458.013-.05-.715-.732-1.617-1.515zm3.524 12.489c-.14-.029.6.76 1.645 1.755 1.044.995 2.012 1.833 2.152 1.863.14.028-.6-.76-1.645-1.756-1.044-.995-2.012-1.833-2.152-1.862zm4.669 4.741c-.14-.029.6.76 1.644 1.756 1.045.995 2.013 1.833 2.153 1.862.14.029-.6-.76-1.645-1.756-1.044-.995-2.013-1.833-2.152-1.862zm18.602 6.183c-1.548-.321-2.587.053-2.844 1.053-.216.838-.047 1.105.93 1.467.657.244 1.42.412 1.695.374.057-.013.144.014.242.05.103-.018.287.013.356 0 .047 0 .097 0 .144-.013.037-.056.109-.11.264-.188.11-.055.34-.062.532-.057a5.94 5.94 0 01.146-.704c.332-1.29.245-1.494-.772-1.808a7.807 7.807 0 00-.694-.18zm.479 3.08l-.049.08c.015.012.022.013.035.02v-.012c0-.036.013-.064.013-.092z" fill="#ffb342" stroke-width=".399"/><path d="M-2125.625-1622.478l-12.696-9.979-.635 6.225-1.385-6.533-13.354 4.495 12.387-5.565-12.584-3.682 12.218 2.614-13.268-12.838 14.473 12.006.825-13.322.525 14.106 14.767-6.283-14.102 7.533z" stroke-width=".676"/><path d="M-2139.94-1632.48l-13.883 17.42-1.11-.594 14.592-17.111z" fill="#ffb342" stroke="none"/></g>
</symbol>
<symbol  id="building" viewBox="0 0 21.167 21.167">
<g transform="translate(576.564 439.493) scale(.26458)" fill="none" stroke="#ffb342"><circle cx="-2139.142" cy="-1621.077" r="38.733" stroke-width="2.535"/><path d="M-2115.88-1605.778h-2.186v-24.517c0-1.718-5.466-6.169-5.466-6.169s-10.931 4.45-10.931 6.169v27.562h-4.685v-37.557c0-1.717-7.027-6.168-7.027-6.168s-14.055 4.45-14.055 6.168v34.512h-2.342c-.859 0-.78.703-.78 1.561 0 .86-.079 1.562.78 1.562h46.692c1.093 0 .937-.703.937-1.562 0-.858.156-1.561-.937-1.561zm-30.295-40.68v38.337m-11.712-29.124l5.465-2.342m-5.465 6.949l5.465-2.342m-5.465 6.168l5.465-2.342m-5.465 6.168l5.465-2.264m-5.465 6.87l5.465-2.264m-5.465 6.091l5.465-2.265m-5.465 6.872l5.465-2.265m-5.465 6.091l5.465-2.265m1.562-29.905l2.342-.78m-2.342 5.387l2.342-.78m-2.342 4.606l2.342-.78m-2.342 4.606l2.342-.78m-2.342 5.387l2.342-.781m-2.342 4.607l2.342-.781m-2.342 5.387l2.342-.78m-2.342 4.606l2.342-.78m24.986-24.518v28.343m-8.588-19.91l5.465-2.342m-5.465 6.168l5.465-2.343m-5.465 6.168l5.465-2.264m-5.465 6.872l5.465-2.343m-5.465 6.169l5.465-2.265" stroke-width="1.562"/></g>
</symbol>
</svg>